<svg width="79" height="77" viewBox="0 0 79 77" fill="none" xmlns="http://www.w3.org/2000/svg">
<path d="M78.0547 22H61.3828V19.9375C61.3783 14.7364 59.1362 9.74232 55.1338 6.01849C51.1314 2.29467 45.6849 0.135255 39.9538 0H38.8587C33.1276 0.135255 27.6811 2.29467 23.6787 6.01849C19.6763 9.74232 17.4342 14.7364 17.4297 19.9375V22H0.757812C0.556828 22 0.364076 22.0724 0.221958 22.2014C0.0798409 22.3303 0 22.5052 0 22.6875V74.25C0 74.9793 0.319363 75.6788 0.887832 76.1945C1.4563 76.7103 2.22731 77 3.03125 77H75.7812C76.5852 77 77.3562 76.7103 77.9247 76.1945C78.4931 75.6788 78.8125 74.9793 78.8125 74.25V22.6875C78.8125 22.5052 78.7327 22.3303 78.5905 22.2014C78.4484 22.0724 78.2557 22 78.0547 22ZM25.0078 20.1094C25.0078 12.9181 31.3374 6.95062 39.2642 6.875C41.1664 6.8598 43.0531 7.18635 44.8155 7.83583C46.5779 8.4853 48.1812 9.44485 49.5329 10.6592C50.8846 11.8735 51.958 13.3185 52.6911 14.9109C53.4243 16.5034 53.8028 18.2117 53.8047 19.9375V22H25.0078V20.1094ZM34.6339 63.4425L23.0072 51.1156L27.6128 47.5389L34.4805 54.8127L51.0595 36.0095L55.7958 39.447L34.6339 63.4425Z" fill="white"/>
</svg>
