<svg width="78" height="71" viewBox="0 0 78 71" fill="none" xmlns="http://www.w3.org/2000/svg">
<path d="M76.2487 21.7754C75.6921 21.3021 75.0301 20.9268 74.3008 20.6711C73.5715 20.4154 72.7895 20.2844 72 20.2857H60V17.75C60 13.0424 57.7875 8.52763 53.8492 5.19885C49.911 1.87008 44.5695 0 39 0C33.4304 0 28.089 1.87008 24.1507 5.19885C20.2125 8.52763 18 13.0424 18 17.75V20.2857H6C4.4087 20.2857 2.88258 20.82 1.75736 21.7711C0.632141 22.7222 0 24.0121 0 25.3571V59.5893C0 65.7701 6.1875 71 13.5 71H64.5C68.0371 71.0009 71.4343 69.832 73.965 67.7432C75.2385 66.7163 76.2526 65.4818 76.9461 64.1145C77.6396 62.7471 77.9981 61.2751 78 59.7874V25.3571C78.0023 24.692 77.8488 24.033 77.5482 23.4182C77.2477 22.8035 76.806 22.2451 76.2487 21.7754ZM51 48.1786H27C26.2043 48.1786 25.4413 47.9114 24.8787 47.4359C24.3161 46.9603 24 46.3154 24 45.6429C24 44.9703 24.3161 44.3254 24.8787 43.8498C25.4413 43.3743 26.2043 43.1071 27 43.1071H51C51.7956 43.1071 52.5587 43.3743 53.1213 43.8498C53.6839 44.3254 54 44.9703 54 45.6429C54 46.3154 53.6839 46.9603 53.1213 47.4359C52.5587 47.9114 51.7956 48.1786 51 48.1786ZM54 20.2857H24V17.75C24 14.3874 25.5803 11.1626 28.3934 8.7849C31.2064 6.4072 35.0217 5.07143 39 5.07143C42.9782 5.07143 46.7935 6.4072 49.6066 8.7849C52.4196 11.1626 54 14.3874 54 17.75V20.2857Z" fill="white"/>
</svg>
