<svg width="70" height="64" viewBox="0 0 70 64" fill="none" xmlns="http://www.w3.org/2000/svg">
<path d="M63.9844 6H6.01562C5.10953 6 4.375 6.67157 4.375 7.5V14.5C4.375 15.3284 5.10953 16 6.01562 16H63.9844C64.8905 16 65.625 15.3284 65.625 14.5V7.5C65.625 6.67157 64.8905 6 63.9844 6Z" fill="#53B175"/>
<path d="M8.75 20V55C8.75 55.7957 9.0957 56.5587 9.71106 57.1213C10.3264 57.6839 11.161 58 12.0312 58H57.9688C58.839 58 59.6736 57.6839 60.2889 57.1213C60.9043 56.5587 61.25 55.7957 61.25 55V20H8.75ZM35 48.8288L23.1492 38L26.25 35.165L32.8125 41.1712V26H37.1875V41.1712L43.7596 35.1625L46.8508 37.9925L35 48.8288Z" fill="#53B175"/>
</svg>
