<svg width="40" height="35" viewBox="0 0 40 35" fill="none" xmlns="http://www.w3.org/2000/svg">
<path d="M16.4469 10.3867C16.4469 11.4277 16.4469 12.4367 16.8312 13.3816C12.7906 17.4335 2.12188 28.14 1.12813 28.9568C0.93062 29.1081 0.772622 29.2933 0.664404 29.5003C0.556185 29.7072 0.50017 29.9313 0.5 30.1579C0.5 30.8386 0.9875 31.4953 1.4 31.8636C2.01875 32.4162 4.6625 34.5062 5.15 34.1058C6.59375 32.9046 6.88438 32.5843 7.475 32.0878C8.36563 31.3431 7.38125 29.8216 7.69062 29.205C8 28.5884 8.32812 28.4683 8.8625 28.3722C9.39687 28.2761 10.3437 28.6044 11.0844 28.6124C11.8625 28.6204 12.2844 28.3402 12.8656 27.8757C13.3344 27.5074 13.6719 27.163 13.6813 26.6265C13.7 25.9058 12.4812 24.9529 13.3906 24.1921C14.3 23.4314 15.6125 24.6886 16.5781 24.5925C17.5438 24.4964 18.7156 23.3513 18.8375 22.8628C18.9594 22.3744 17.7406 21.1171 17.9281 20.4044C17.9937 20.1642 18.5656 19.6037 18.9969 19.5236C19.4281 19.4435 21.3406 20.0761 21.7719 19.996C22.2969 19.8999 22.9062 19.4275 23.4031 19.1632C24.8562 19.6997 26.1781 19.916 27.875 19.916C34.2969 19.916 39.5 15.6398 39.5 10.3706C39.5 5.1015 34.2969 0.84375 27.875 0.84375C21.4531 0.84375 16.4469 5.11752 16.4469 10.3867ZM33.5 8.53125C33.5 9.03806 33.3241 9.5335 32.9944 9.9549C32.6648 10.3763 32.1962 10.7047 31.6481 10.8987C31.0999 11.0926 30.4967 11.1434 29.9147 11.0445C29.3328 10.9456 28.7982 10.7016 28.3787 10.3432C27.9591 9.98484 27.6734 9.52824 27.5576 9.03117C27.4419 8.53409 27.5013 8.01886 27.7284 7.55062C27.9554 7.08239 28.3399 6.68218 28.8333 6.40061C29.3266 6.11904 29.9067 5.96875 30.5 5.96875C31.2956 5.96875 32.0587 6.23873 32.6213 6.71929C33.1839 7.19985 33.5 7.85163 33.5 8.53125Z" fill="#599F73"/>
</svg>
