<svg width="33" height="35" viewBox="0 0 33 35" fill="none" xmlns="http://www.w3.org/2000/svg">
<path d="M22.5794 2.5453C21.0358 0.903901 18.8797 0 16.5 0C14.1076 0 11.9444 0.898432 10.4079 2.52967C8.85468 4.17888 8.09792 6.42028 8.27561 8.84057C8.62781 13.6155 12.3172 17.4999 16.5 17.4999C20.6828 17.4999 24.3658 13.6163 24.7236 8.84214C24.9037 6.44371 24.1421 4.20701 22.5794 2.5453ZM30.4612 34.9998H2.53885C2.17337 35.0045 1.81143 34.9289 1.47936 34.7784C1.14728 34.628 0.853435 34.4066 0.619187 34.1303C0.103576 33.5232 -0.104255 32.6943 0.049635 31.8561C0.719136 28.1983 2.80855 25.1256 6.09259 22.9686C9.01016 21.0538 12.7059 19.9999 16.5 19.9999C20.2941 19.9999 23.9898 21.0546 26.9074 22.9686C30.1914 25.1249 32.2809 28.1975 32.9504 31.8553C33.1043 32.6936 32.8964 33.5225 32.3808 34.1295C32.1466 34.406 31.8528 34.6275 31.5207 34.7781C31.1887 34.9286 30.8267 35.0044 30.4612 34.9998Z" fill="#599F73"/>
</svg>
