<svg width="23" height="27" viewBox="0 0 23 27" fill="none" xmlns="http://www.w3.org/2000/svg">
<path d="M3.60889 6.24292C3.95235 6.61319 4.34733 6.79833 4.79382 6.79833C5.24031 6.79833 5.61812 6.61319 5.92723 6.24292C6.27069 5.8315 6.44241 5.35838 6.44241 4.82354C6.44241 4.2887 6.27069 3.83614 5.92723 3.46587C5.61812 3.05446 5.24031 2.84875 4.79382 2.84875C4.34733 2.84875 3.95235 3.05446 3.60889 3.46587C3.29978 3.83614 3.14523 4.2887 3.14523 4.82354C3.14523 5.35838 3.29978 5.8315 3.60889 6.24292ZM22.3101 12.8461C22.7223 13.3398 22.9284 13.9569 22.9284 14.6975C22.9284 15.438 22.7223 16.0552 22.3101 16.5489L14.5823 25.8057C14.1702 26.2994 13.655 26.5462 13.0368 26.5462C12.4186 26.5462 11.9034 26.2994 11.4912 25.8057L1.59967 13.9569C1.18752 13.4632 0.981445 12.8461 0.981445 12.1056V2.84875C0.981445 2.14934 1.18752 1.55279 1.59967 1.05909C2.04616 0.524255 2.56135 0.256836 3.14523 0.256836H10.873C11.4912 0.256836 12.0064 0.503685 12.4186 0.997382L22.3101 12.8461Z" fill="#666666"/>
</svg>
