<svg width="104" height="78" viewBox="0 0 104 78" fill="none" xmlns="http://www.w3.org/2000/svg">
<path d="M95.3333 0H8.66667C3.88194 0 0 3.7433 0 8.35714V69.6429C0 74.2567 3.88194 78 8.66667 78H95.3333C100.118 78 104 74.2567 104 69.6429V8.35714C104 3.7433 100.118 0 95.3333 0ZM31.7778 16.7143C38.1514 16.7143 43.3333 21.7112 43.3333 27.8571C43.3333 34.0031 38.1514 39 31.7778 39C25.4042 39 20.2222 34.0031 20.2222 27.8571C20.2222 21.7112 25.4042 16.7143 31.7778 16.7143ZM52 57.9429C52 59.7884 50.1944 61.2857 47.9556 61.2857H15.6C13.3611 61.2857 11.5556 59.7884 11.5556 57.9429V54.6C11.5556 49.0634 16.9903 44.5714 23.6889 44.5714H24.5917C26.8125 45.4594 29.2319 45.9643 31.7778 45.9643C34.3236 45.9643 36.7611 45.4594 38.9639 44.5714H39.8667C46.5653 44.5714 52 49.0634 52 54.6V57.9429ZM92.4444 48.75C92.4444 49.5161 91.7944 50.1429 91 50.1429H65C64.2056 50.1429 63.5556 49.5161 63.5556 48.75V45.9643C63.5556 45.1982 64.2056 44.5714 65 44.5714H91C91.7944 44.5714 92.4444 45.1982 92.4444 45.9643V48.75ZM92.4444 37.6071C92.4444 38.3732 91.7944 39 91 39H65C64.2056 39 63.5556 38.3732 63.5556 37.6071V34.8214C63.5556 34.0554 64.2056 33.4286 65 33.4286H91C91.7944 33.4286 92.4444 34.0554 92.4444 34.8214V37.6071ZM92.4444 26.4643C92.4444 27.2304 91.7944 27.8571 91 27.8571H65C64.2056 27.8571 63.5556 27.2304 63.5556 26.4643V23.6786C63.5556 22.9125 64.2056 22.2857 65 22.2857H91C91.7944 22.2857 92.4444 22.9125 92.4444 23.6786V26.4643Z" fill="#53B175"/>
</svg>
