<svg width="34" height="31" viewBox="0 0 34 31" fill="none" xmlns="http://www.w3.org/2000/svg">
<path d="M17.2455 20.2187L17 20.0804L16.7545 20.2187L12.5031 22.6144L13.6076 18.1193L13.6828 17.8132L13.4391 17.6134L9.73117 14.5725L14.6736 14.1774L14.9696 14.1538L15.0905 13.8826L17 9.59852L18.9095 13.8826L19.0304 14.1538L19.3264 14.1774L24.2688 14.5725L20.5609 17.6134L20.3172 17.8132L20.3924 18.1193L21.4969 22.6144L17.2455 20.2187ZM31.3165 12.8932L32.2785 12.1066L31.0398 12.0078L21.2774 11.2287L17.4554 2.79364L17 1.7885L16.5446 2.79364L12.7226 11.2287L2.96023 12.0078L1.72149 12.1066L2.68349 12.8932L10.0628 18.9274L7.8387 27.8794L7.5574 29.0116L8.57128 28.4345L17 23.637L25.4287 28.4345L26.4426 29.0116L26.1613 27.8794L23.9372 18.9274L31.3165 12.8932Z" fill="#53B175" stroke="#53B175"/>
</svg>
